<svg xmlns="http://www.w3.org/2000/svg" xmlns:xlink="http://www.w3.org/1999/xlink" version="1.1" viewBox="399.92818,383.07755999999995,150.63948390625,157.35587999999996">
     <g xmlns="http://www.w3.org/2000/svg" fill="none" fill-rule="nonzero" stroke="none" stroke-width="none" stroke-linecap="none" stroke-linejoin="none" stroke-miterlimit="10" stroke-dasharray="" stroke-dashoffset="0" font-family="none" font-weight="none" font-size="none" text-anchor="none" style="mix-blend-mode: normal"><path d="M505.29073,467.06231c-13.13771,-22.62392 -26.27541,-45.24784 -39.41312,-67.87176c-5.11016,8.4778 -10.22033,16.95561 -15.33049,25.43341" fill-opacity="0.001" fill="#000000" stroke="#000000" stroke-width="6" stroke-linecap="round" stroke-linejoin="round"/><path d="M466.38173,419.56559c-13.02403,22.68955 -26.04807,45.37909 -39.07211,68.06864c9.89707,0.18663 19.79415,0.37326 29.69122,0.55989" fill-opacity="0.001" fill="#000000" stroke="#000000" stroke-width="6" stroke-linecap="round" stroke-linejoin="round"/><path d="M444.70287,477.01013c26.16174,-0.06563 52.32348,-0.13125 78.48523,-0.19688c-4.78691,-8.66443 -9.57382,-17.32887 -14.36073,-25.9933" fill-opacity="0.001" fill="#000000" stroke="#000000" stroke-width="6" stroke-linecap="round" stroke-linejoin="round"/><g transform="translate(413.04117,521.98993) scale(0.29614,0.29614)" fill="#929292" stroke="none" stroke-width="1" stroke-linecap="butt" stroke-linejoin="miter" font-family="Roboto-Regular" font-weight="normal" font-size="60" text-anchor="middle"><path transform="translate(0, 0) scale(0.029296875, -0.029296875)" d="M235 1456L613 725L993 1456L1211 1456L709 543L709 0L517 0L517 543L15 1456L235 1456ZM1321 538L1321 551Q1321 710 1383 837Q1446 964 1557 1033Q1669 1102 1812 1102Q2033 1102 2169 949Q2306 796 2306 542L2306 529Q2306 371 2245 245Q2185 120 2072 50Q1960 -20 1814 -20Q1594 -20 1457 133Q1321 286 1321 538ZM1507 529Q1507 349 1590 240Q1674 131 1814 131Q1955 131 2038 241Q2121 352 2121 551Q2121 729 2036 839Q1952 950 1812 950Q1675 950 1591 841Q1507 732 1507 529ZM3210 0L3206 107Q3098 -20 2889 -20Q2716 -20 2625 80Q2535 181 2534 378L2534 1082L2719 1082L2719 383Q2719 137 2919 137Q3131 137 3201 295L3201 1082L3386 1082L3386 0L3210 0ZM4190 1088L4190 916Q4148 923 4099 923Q3917 923 3852 768L3852 0L3667 0L3667 1082L3847 1082L3850 957Q3941 1102 4108 1102Q4162 1102 4190 1088ZM5068 1536L5068 0L4883 0L4883 1536L5068 1536ZM5315 538L5315 551Q5315 710 5377 837Q5440 964 5551 1033Q5663 1102 5806 1102Q6027 1102 6163 949Q6300 796 6300 542L6300 529Q6300 371 6239 245Q6179 120 6066 50Q5954 -20 5808 -20Q5588 -20 5451 133Q5315 286 5315 538ZM5501 529Q5501 349 5584 240Q5668 131 5808 131Q5949 131 6032 241Q6115 352 6115 551Q6115 729 6030 839Q5946 950 5806 950Q5669 950 5585 841Q5501 732 5501 529ZM6488 550Q6488 803 6605 952Q6722 1102 6915 1102Q7113 1102 7224 962L7233 1082L7402 1082L7402 26Q7402 -184 7277 -305Q7153 -426 6943 -426Q6826 -426 6714 -376Q6602 -326 6543 -239L6639 -128Q6758 -275 6930 -275Q7065 -275 7140 -199Q7216 -123 7216 15L7216 108Q7105 -20 6913 -20Q6723 -20 6605 133Q6488 286 6488 550ZM6674 529Q6674 346 6749 241Q6824 137 6959 137Q7134 137 7216 296L7216 790Q7131 945 6961 945Q6826 945 6750 840Q6674 735 6674 529ZM7632 538L7632 551Q7632 710 7694 837Q7757 964 7868 1033Q7980 1102 8123 1102Q8344 1102 8480 949Q8617 796 8617 542L8617 529Q8617 371 8556 245Q8496 120 8383 50Q8271 -20 8125 -20Q7905 -20 7768 133Q7632 286 7632 538ZM7818 529Q7818 349 7901 240Q7985 131 8125 131Q8266 131 8349 241Q8432 352 8432 551Q8432 729 8347 839Q8263 950 8123 950Q7986 950 7902 841Q7818 732 7818 529ZM9356 1082L9531 1082L9537 946Q9661 1102 9861 1102Q10204 1102 10207 715L10207 0L10022 0L10022 716Q10021 833 9968 889Q9916 945 9805 945Q9715 945 9647 897Q9579 849 9541 771L9541 0L9356 0L9356 1082ZM11348 0L11154 0Q11138 32 11128 114Q10999 -20 10820 -20Q10660 -20 10557 70Q10455 161 10455 300Q10455 469 10583 562Q10712 656 10945 656L11125 656L11125 741Q11125 838 11067 895Q11009 953 10896 953Q10797 953 10730 903Q10663 853 10663 782L10477 782Q10477 863 10534 938Q10592 1014 10690 1058Q10789 1102 10907 1102Q11094 1102 11200 1008Q11306 915 11310 751L11310 253Q11310 104 11348 16L11348 0ZM10847 141Q10934 141 11012 186Q11090 231 11125 303L11125 525L10980 525Q10640 525 10640 326Q10640 239 10698 190Q10756 141 10847 141ZM11599 1082L11774 1082L11779 962Q11898 1102 12100 1102Q12327 1102 12409 928Q12463 1006 12549 1054Q12636 1102 12754 1102Q13110 1102 13116 725L13116 0L12931 0L12931 714Q12931 830 12878 887Q12825 945 12700 945Q12597 945 12529 883Q12461 822 12450 718L12450 0L12264 0L12264 709Q12264 945 12033 945Q11851 945 11784 790L11784 0L11599 0L11599 1082ZM13844 -20Q13624 -20 13486 124Q13348 269 13348 511L13348 545Q13348 706 13409 832Q13471 959 13581 1030Q13692 1102 13821 1102Q14032 1102 14149 963Q14266 824 14266 565L14266 488L13533 488Q13537 328 13626 229Q13716 131 13854 131Q13952 131 14020 171Q14088 211 14139 277L14252 189Q14116 -20 13844 -20ZM13821 950Q13709 950 13633 868Q13557 787 13539 640L14081 640L14081 654Q14073 795 14005 872Q13937 950 13821 950Z" stroke-width="34.13333"/></g></g>
     </svg>